<svg width="27" height="28" viewBox="0 0 27 28" fill="none" xmlns="http://www.w3.org/2000/svg">
<path fill-rule="evenodd" clip-rule="evenodd" d="M14.6664 0.648865C17.7267 0.964489 20.5865 2.35624 22.7613 4.5883C24.9361 6.82036 26.2922 9.75545 26.5997 12.8962H23.9997C23.6461 12.8962 23.307 13.0404 23.0569 13.297C22.8069 13.5537 22.6664 13.9017 22.6664 14.2647C22.6664 14.6276 22.8069 14.9756 23.0569 15.2323C23.307 15.4889 23.6461 15.6331 23.9997 15.6331H26.5997C25.9317 22.5477 20.2464 27.9489 13.3331 27.9489C6.41974 27.9489 0.734406 22.5477 0.0664062 15.6331H2.66641C3.02003 15.6331 3.35917 15.4889 3.60922 15.2323C3.85926 14.9756 3.99974 14.6276 3.99974 14.2647C3.99974 13.9017 3.85926 13.5537 3.60922 13.297C3.35917 13.0404 3.02003 12.8962 2.66641 12.8962H0.0664062C0.373938 9.75545 1.73001 6.82036 3.90483 4.5883C6.07966 2.35624 8.93949 0.964489 11.9997 0.648865V3.31729C11.9997 3.68021 12.1402 4.02828 12.3903 4.28491C12.6403 4.54153 12.9795 4.68571 13.3331 4.68571C13.6867 4.68571 14.0258 4.54153 14.2759 4.28491C14.5259 4.02828 14.6664 3.68021 14.6664 3.31729V0.648865ZM21.0397 6.35518L14.5824 9.72834L14.0851 9.99792L13.2717 10.4221C12.3117 10.9284 11.3331 11.4785 10.5984 12.2326C9.30374 13.5627 9.14641 15.774 10.5051 17.1671C11.8624 18.5615 14.0171 18.4 15.3131 17.0713C15.9424 16.4254 16.4264 15.5961 16.8624 14.7504L17.4904 13.4929L17.9731 12.5377L21.0397 6.35518ZM14.8824 12.6746L14.7331 12.9619L14.5824 13.2575C14.3037 13.8076 14.0144 14.3823 13.6517 14.8613L13.4277 15.135C13.0571 15.5154 12.5944 15.4415 12.3904 15.2321C12.2064 15.0433 12.1291 14.641 12.3864 14.2852L12.4837 14.1689C12.9091 13.7666 13.4491 13.4491 13.9904 13.1562L14.3144 12.9824C14.51 12.8794 14.6993 12.7767 14.8824 12.6746Z" fill="#1A2532"/>
</svg>
