<svg width="61" height="60" viewBox="0 0 61 60" fill="none" xmlns="http://www.w3.org/2000/svg">
<path d="M18.7617 23.748C15.2617 23.748 12.5117 26.498 12.5117 29.998C12.5117 33.498 15.2617 36.2481 18.7617 36.2481C22.2617 36.2481 25.0117 33.498 25.0117 29.998C25.0117 26.498 22.2617 23.748 18.7617 23.748ZM41.2617 23.748C37.7617 23.748 35.0117 26.498 35.0117 29.998C35.0117 33.498 37.7617 36.2481 41.2617 36.2481C44.7617 36.2481 47.5117 33.498 47.5117 29.998C47.5117 26.498 44.7617 23.748 41.2617 23.748ZM30.0117 9.99805C41.0117 9.99805 50.0117 18.998 50.0117 29.998C50.0117 40.9981 41.0117 49.9981 30.0117 49.9981C19.0117 49.9981 10.0117 40.9981 10.0117 29.998C10.0117 18.998 19.0117 9.99805 30.0117 9.99805ZM30.0117 4.99805C16.2617 4.99805 5.01172 16.248 5.01172 29.998C5.01172 43.7481 16.2617 54.9981 30.0117 54.9981C43.7617 54.9981 55.0117 43.7481 55.0117 29.998C55.0117 16.248 43.7617 4.99805 30.0117 4.99805ZM30.0117 12.498C26.5117 12.498 23.7617 15.248 23.7617 18.748C23.7617 22.248 26.5117 24.998 30.0117 24.998C33.5117 24.998 36.2617 22.248 36.2617 18.748C36.2617 15.248 33.5117 12.498 30.0117 12.498ZM33.7617 18.748C33.7617 19.248 33.5117 19.748 33.2617 20.248L31.7617 18.748L33.2617 17.248C33.5117 17.748 33.7617 18.248 33.7617 18.748ZM31.5117 15.498L30.0117 16.998L28.5117 15.498C29.0117 15.248 29.5117 14.998 30.0117 14.998C30.5117 14.998 31.0117 15.248 31.5117 15.498ZM26.7617 20.248C26.5117 19.748 26.2617 19.248 26.2617 18.748C26.2617 18.248 26.5117 17.748 26.7617 17.248L28.2617 18.748L26.7617 20.248ZM28.5117 21.998L30.0117 20.498L31.5117 21.998C31.0117 22.248 30.5117 22.498 30.0117 22.498C29.5117 22.498 29.0117 22.248 28.5117 21.998ZM30.0117 34.9981C26.5117 34.9981 23.7617 37.7481 23.7617 41.2481C23.7617 44.7481 26.5117 47.4981 30.0117 47.4981C33.5117 47.4981 36.2617 44.7481 36.2617 41.2481C36.2617 37.7481 33.5117 34.9981 30.0117 34.9981ZM33.7617 41.2481C33.7617 41.7481 33.5117 42.2481 33.2617 42.7481L31.7617 41.2481L33.2617 39.7481C33.5117 40.2481 33.7617 40.7481 33.7617 41.2481ZM31.5117 37.9981L30.0117 39.4981L28.5117 37.9981C29.0117 37.7481 29.5117 37.4981 30.0117 37.4981C30.5117 37.4981 31.0117 37.7481 31.5117 37.9981ZM26.7617 42.7481C26.5117 42.2481 26.2617 41.7481 26.2617 41.2481C26.2617 40.7481 26.5117 40.2481 26.7617 39.7481L28.2617 41.2481L26.7617 42.7481ZM28.5117 44.498L30.0117 42.9981L31.5117 44.498C31.0117 44.748 30.5117 44.9981 30.0117 44.9981C29.5117 44.9981 29.0117 44.748 28.5117 44.498Z" fill="#222E3A"/>
</svg>
