<svg width="50" height="54" viewBox="0 0 50 54" fill="none" xmlns="http://www.w3.org/2000/svg">
<path d="M0.261719 47.8266V20.0552C0.261719 19.078 0.481374 18.1523 0.920687 17.278C1.36 16.4038 1.96534 15.6838 2.73672 15.118L21.2992 1.23233C22.382 0.409476 23.6195 -0.00195312 25.0117 -0.00195312C26.4039 -0.00195312 27.6414 0.409476 28.7242 1.23233L47.2867 15.118C48.0601 15.6838 48.6665 16.4038 49.1058 17.278C49.5451 18.1523 49.7638 19.078 49.7617 20.0552V47.8266C49.7617 49.5238 49.1553 50.9771 47.9426 52.1867C46.7298 53.3963 45.2737 54.0001 43.5742 53.998H34.293C33.4164 53.998 32.6821 53.7018 32.0902 53.1093C31.4983 52.5169 31.2013 51.7845 31.1992 50.9123V35.4838C31.1992 34.6095 30.9022 33.8771 30.3082 33.2867C29.7142 32.6963 28.98 32.4001 28.1055 32.398H21.918C21.0414 32.398 20.3072 32.6943 19.7152 33.2867C19.1233 33.8792 18.8263 34.6115 18.8242 35.4838V50.9123C18.8242 51.7866 18.5272 52.52 17.9332 53.1124C17.3392 53.7049 16.605 54.0001 15.7305 53.998H6.44922C4.74766 53.998 3.29153 53.3943 2.08084 52.1867C0.870156 50.9792 0.263781 49.5258 0.261719 47.8266Z" fill="#222E3A"/>
</svg>
