<svg width="50" height="57" viewBox="0 0 50 57" fill="none" xmlns="http://www.w3.org/2000/svg">
<path d="M42.5118 7.6114C47.0555 12.148 49.6543 18.2713 49.7585 24.6866C49.8626 31.1018 47.4641 37.3061 43.07 41.9874L42.5118 42.564L30.8438 54.2121C29.3633 55.6895 27.3758 56.5497 25.2839 56.6186C23.192 56.6874 21.152 55.9597 19.5774 54.5828L19.1814 54.2121L7.51068 42.5613C2.86925 37.9266 0.261719 31.6407 0.261719 25.0863C0.261719 18.532 2.86925 12.246 7.51068 7.6114C12.1521 2.97676 18.4472 0.373047 25.0112 0.373047C31.5752 0.373047 37.8703 2.97676 42.5118 7.6114ZM25.0112 16.8486C23.9278 16.8486 22.8551 17.0617 21.8542 17.4757C20.8533 17.8897 19.9438 18.4964 19.1777 19.2614C18.4117 20.0263 17.804 20.9345 17.3894 21.9339C16.9748 22.9333 16.7614 24.0045 16.7614 25.0863C16.7614 26.1681 16.9748 27.2393 17.3894 28.2388C17.804 29.2382 18.4117 30.1463 19.1777 30.9113C19.9438 31.6762 20.8533 32.283 21.8542 32.697C22.8551 33.111 23.9278 33.324 25.0112 33.324C27.1992 33.324 29.2976 32.4561 30.8447 30.9113C32.3918 29.3664 33.261 27.2711 33.261 25.0863C33.261 22.9016 32.3918 20.8063 30.8447 19.2614C29.2976 17.7165 27.1992 16.8486 25.0112 16.8486Z" fill="#808080"/>
</svg>
