<svg width="61" height="42" viewBox="0 0 61 42" fill="none" xmlns="http://www.w3.org/2000/svg">
<path d="M27.0117 -0.00195312V12.508C25.3009 13.1129 23.8127 14.2205 22.7423 15.6859C21.672 17.1512 21.0694 18.9057 21.0136 20.7195C20.9578 22.5333 21.4515 24.3215 22.4297 25.8499C23.408 27.3782 24.8253 28.5752 26.4957 29.2841L27.0117 29.4851V41.9981H6.01172C4.49799 41.9985 3.04002 41.4268 1.93008 40.3976C0.820131 39.3683 0.140249 37.9575 0.0267194 36.4481L0.0117191 35.9981V32.9981H9.01172C10.5254 32.9985 11.9834 32.4268 13.0934 31.3976C14.2033 30.3683 14.8832 28.9575 14.9967 27.448L15.0117 26.9981V14.998C15.0122 13.4843 14.4405 12.0263 13.4112 10.9164C12.382 9.80646 10.9712 9.12658 9.46172 9.01305L9.01172 8.99805H0.0117191V5.99805C0.01124 4.48432 0.582938 3.02635 1.61221 1.9164C2.64148 0.806459 4.05225 0.126577 5.56172 0.0130472L6.01172 -0.00195312H27.0117ZM54.0117 -0.00195312C55.603 -0.00195312 57.1292 0.630188 58.2544 1.75541C59.3796 2.88062 60.0117 4.40675 60.0117 5.99805V8.99805H51.0117C49.4204 8.99805 47.8943 9.63019 46.7691 10.7554C45.6439 11.8806 45.0117 13.4067 45.0117 14.998V26.9981C45.0117 28.5893 45.6439 30.1155 46.7691 31.2407C47.8943 32.3659 49.4204 32.9981 51.0117 32.9981H60.0117V35.9981C60.0117 37.5894 59.3796 39.1155 58.2544 40.2407C57.1292 41.3659 55.603 41.9981 54.0117 41.9981H33.0117V29.4881C34.7683 28.8682 36.2894 27.7188 37.3654 26.1983C38.4413 24.6777 39.0191 22.8608 39.0191 20.9981C39.0191 19.1353 38.4413 17.3184 37.3654 15.7978C36.2894 14.2773 34.7683 13.1279 33.0117 12.508V-0.00195312H54.0117ZM9.01172 14.998V26.9981H0.0117191V14.998H9.01172ZM60.0117 14.998V26.9981H51.0117V14.998H60.0117ZM30.0117 17.9981C30.8074 17.9981 31.5704 18.3141 32.133 18.8767C32.6957 19.4393 33.0117 20.2024 33.0117 20.9981C33.0117 21.7937 32.6957 22.5568 32.133 23.1194C31.5704 23.682 30.8074 23.9981 30.0117 23.9981C29.2161 23.9981 28.453 23.682 27.8904 23.1194C27.3278 22.5568 27.0117 21.7937 27.0117 20.9981C27.0117 20.2024 27.3278 19.4393 27.8904 18.8767C28.453 18.3141 29.2161 17.9981 30.0117 17.9981Z" fill="white"/>
</svg>
