<svg width="54" height="54" viewBox="0 0 54 54" fill="none" xmlns="http://www.w3.org/2000/svg">
<path fill-rule="evenodd" clip-rule="evenodd" d="M27.5469 6.94742C26.5406 6.7768 25.1669 6.76367 22.6906 6.76367C18.4972 6.76367 15.5156 6.76805 13.2581 7.06992C11.0444 7.36523 9.77344 7.92305 8.84812 8.84617C7.92281 9.7693 7.36719 11.0402 7.07188 13.2409C6.77 15.4896 6.76562 18.4515 6.76562 22.6252V31.3752C6.76562 35.5446 6.77 38.5065 7.07188 40.7552C7.36719 42.9559 7.92281 44.2246 8.84812 45.1521C9.77344 46.0752 11.0422 46.6309 13.2428 46.9262C15.4916 47.2302 18.4534 47.2324 22.625 47.2324H31.375C35.5466 47.2324 38.5106 47.228 40.7594 46.9262C42.9578 46.6309 44.2266 46.0752 45.1519 45.1499C46.0772 44.2246 46.6328 42.9559 46.9281 40.7552C47.23 38.5087 47.2344 35.5446 47.2344 31.373V30.4171C47.2344 27.0571 47.2125 25.4646 46.8538 24.2637H40.0069C37.5284 24.2637 35.505 24.2637 33.9037 24.0493C32.2347 23.824 30.7866 23.3384 29.6294 22.1812C28.4722 21.024 27.9866 19.578 27.7612 17.9046C27.5469 16.3077 27.5469 14.2821 27.5469 11.8015V6.94742ZM30.8281 8.64492V11.6855C30.8281 14.3105 30.8325 16.113 31.0141 17.4671C31.1891 18.7752 31.5041 19.4162 31.9503 19.8602C32.3966 20.3043 33.0353 20.6215 34.3434 20.7965C35.6975 20.978 37.5 20.9824 40.125 20.9824H44.5438C43.7042 20.1832 42.851 19.3985 41.9844 18.6287L33.3241 10.8346C32.5071 10.0877 31.675 9.35767 30.8281 8.64492ZM23.0078 3.48242C26.0375 3.48242 27.9953 3.48242 29.7956 4.17148C31.5959 4.86273 33.0441 6.16648 35.2863 8.18555L35.5203 8.39555L44.1784 16.1896L44.4519 16.4346C47.0419 18.7643 48.7175 20.2715 49.6166 22.2927C50.5156 24.314 50.5178 26.5671 50.5156 30.0496V31.4955C50.5156 35.5162 50.5156 38.7012 50.1809 41.1927C49.8353 43.7565 49.1091 45.8324 47.4728 47.4709C45.8344 49.1071 43.7584 49.8334 41.1947 50.179C38.7009 50.5137 35.5181 50.5137 31.4975 50.5137H22.5025C18.4819 50.5137 15.2969 50.5137 12.8053 50.179C10.2416 49.8334 8.16563 49.1071 6.52719 47.4709C4.89094 45.8324 4.16469 43.7565 3.81906 41.1927C3.48438 38.699 3.48438 35.5162 3.48438 31.4955V22.5027C3.48438 18.4821 3.48438 15.2971 3.81906 12.8055C4.16469 10.2418 4.89094 8.16586 6.52719 6.52742C8.16781 4.88898 10.2481 4.16492 12.8228 3.8193C15.3253 3.48461 18.5256 3.48461 22.5681 3.48461H23.01" fill="white"/>
</svg>
