<svg width="33" height="32" viewBox="0 0 33 32" fill="none" xmlns="http://www.w3.org/2000/svg">
<path d="M23.0858 16.6532C22.7072 19.8065 20.6418 21.0665 19.7498 21.9812C18.8565 22.8985 19.0165 23.0812 19.0765 24.4265C19.0865 24.5929 19.0623 24.7597 19.0055 24.9164C18.9486 25.0732 18.8602 25.2166 18.7458 25.3379C18.6314 25.4592 18.4933 25.5558 18.3401 25.6217C18.187 25.6876 18.0219 25.7215 17.8552 25.7212H14.3112C14.1445 25.7209 13.9797 25.6866 13.8267 25.6205C13.6738 25.5544 13.5359 25.4579 13.4215 25.3367C13.3071 25.2156 13.2185 25.0724 13.1613 24.9159C13.104 24.7594 13.0793 24.5929 13.0885 24.4265C13.0885 23.1065 13.2112 22.7998 12.4165 21.9812C11.4032 20.9678 9.01918 19.5372 9.01918 15.6025C9.01309 14.6252 9.20954 13.6572 9.59613 12.7595C9.98272 11.8619 10.5511 11.054 11.2654 10.387C11.9797 9.71987 12.8244 9.20799 13.7464 8.88358C14.6683 8.55918 15.6475 8.42928 16.6221 8.50208C17.5967 8.57488 18.5457 8.84879 19.4092 9.30656C20.2728 9.76432 21.0321 10.396 21.6394 11.1618C22.2466 11.9276 22.6887 12.8109 22.9376 13.756C23.1866 14.7011 23.2371 15.6876 23.0858 16.6532Z" stroke="white" stroke-width="2" stroke-linecap="round" stroke-linejoin="round"/>
<path d="M14.0299 25.6481V27.6641C14.0299 28.2148 14.3366 28.6668 14.7139 28.6668H17.4513C17.8313 28.6668 18.1366 28.2134 18.1366 27.6641V25.6481M15.0433 11.5948C14.256 11.5951 13.5011 11.9081 12.9445 12.4649C12.3879 13.0218 12.0753 13.7768 12.0753 14.5641M25.8593 15.8721H28.3046M23.3979 7.8561L25.1326 6.12143M24.7313 22.6668L26.4659 24.4001M16.0833 3.16943V5.14677M7.06995 6.1201L8.79261 7.8561M5.73661 24.4001L7.45928 22.6668M6.30728 15.8721H3.86328" stroke="white" stroke-width="2" stroke-linecap="round" stroke-linejoin="round"/>
</svg>
