<svg width="30" height="34" viewBox="0 0 30 34" fill="none" xmlns="http://www.w3.org/2000/svg">
<path d="M8.21094 5.5C8.21199 4.79066 8.36784 4.0901 8.66758 3.44721C8.96733 2.80432 9.40377 2.23458 9.94643 1.77777C10.4891 1.32095 11.1249 0.988066 11.8095 0.802337C12.4941 0.616609 13.211 0.582514 13.9101 0.702433C14.6092 0.822352 15.2738 1.0934 15.8573 1.49665C16.4409 1.8999 16.9294 2.42564 17.2888 3.03718C17.6482 3.64873 17.8699 4.33134 17.9382 5.03737C18.0066 5.74341 17.9201 6.45586 17.6847 7.125H27.7109C28.1419 7.125 28.5552 7.29621 28.86 7.60095C29.1647 7.9057 29.3359 8.31902 29.3359 8.75V13.8298C29.3361 14.0779 29.2795 14.3227 29.1704 14.5455C29.0613 14.7684 28.9026 14.9633 28.7065 15.1153C28.5104 15.2673 28.2821 15.3724 28.0392 15.4225C27.7962 15.4726 27.5449 15.4664 27.3047 15.4044C26.5845 15.2192 25.8315 15.2012 25.1034 15.3519C24.3752 15.5025 23.6911 15.8177 23.1035 16.2733C22.5158 16.729 22.0402 17.313 21.713 17.9807C21.3858 18.6485 21.2157 19.3822 21.2157 20.1258C21.2157 20.8694 21.3858 21.6031 21.713 22.2709C22.0402 22.9386 22.5158 23.5227 23.1035 23.9783C23.6911 24.434 24.3752 24.7492 25.1034 24.8998C25.8315 25.0504 26.5845 25.0324 27.3047 24.8472C27.5448 24.7853 27.7959 24.779 28.0388 24.8291C28.2816 24.8791 28.5098 24.984 28.7059 25.1359C28.9019 25.2877 29.0606 25.4824 29.1699 25.705C29.2791 25.9276 29.3359 26.1723 29.3359 26.4202V31.5C29.3359 31.931 29.1647 32.3443 28.86 32.649C28.5552 32.9538 28.1419 33.125 27.7109 33.125H1.71094C1.27996 33.125 0.866635 32.9538 0.561889 32.649C0.257142 32.3443 0.0859375 31.931 0.0859375 31.5V8.75C0.0859375 8.31902 0.257142 7.9057 0.561889 7.60095C0.866635 7.29621 1.27996 7.125 1.71094 7.125H8.48719C8.30844 6.61637 8.21094 6.06875 8.21094 5.5Z" fill="#192431"/>
</svg>
