<svg width="38" height="37" viewBox="0 0 38 37" fill="none" xmlns="http://www.w3.org/2000/svg">
<path d="M23.499 4.10392C23.7916 4.18579 24.0652 4.32453 24.3042 4.5122C24.5432 4.69988 24.7428 4.93281 24.8917 5.19769C25.0406 5.46256 25.1359 5.75418 25.172 6.05589C25.2081 6.35759 25.1845 6.66346 25.1023 6.956L18.2712 31.2943C18.1056 31.8849 17.7122 32.3856 17.1775 32.6861C16.6427 32.9866 16.0105 33.0625 15.4199 32.8969C14.8293 32.7313 14.3286 32.3378 14.0281 31.8031C13.7275 31.2684 13.6517 30.6362 13.8173 30.0455L20.6485 5.70417C20.7305 5.41169 20.8693 5.13823 21.0571 4.89943C21.2448 4.66062 21.4778 4.46115 21.7426 4.3124C22.0075 4.16365 22.2991 4.06854 22.6007 4.0325C22.9023 3.99647 23.2081 4.02021 23.5005 4.10238L23.499 4.10392ZM12.6148 10.3245C13.0479 10.7581 13.2911 11.3459 13.2911 11.9587C13.2911 12.5715 13.0479 13.1593 12.6148 13.5929L7.71233 18.5L12.6179 23.4056C13.0515 23.8394 13.295 24.4277 13.2949 25.0411C13.2948 25.6544 13.051 26.2426 12.6171 26.6762C12.1833 27.1098 11.595 27.3534 10.9817 27.3532C10.3683 27.3531 9.78011 27.1093 9.3465 26.6755L2.8052 20.1342C2.37215 19.7006 2.12891 19.1128 2.12891 18.5C2.12891 17.8872 2.37215 17.2994 2.8052 16.8658L9.34495 10.3245C9.55971 10.1097 9.8147 9.93918 10.0954 9.82288C10.376 9.70657 10.6769 9.6467 10.9807 9.6467C11.2845 9.6467 11.5853 9.70657 11.866 9.82288C12.1466 9.93918 12.4001 10.1097 12.6148 10.3245ZM26.3048 13.5929C26.0776 13.3812 25.8954 13.1259 25.769 12.8422C25.6426 12.5585 25.5747 12.2523 25.5692 11.9418C25.5637 11.6313 25.6208 11.3229 25.7371 11.035C25.8534 10.747 26.0265 10.4854 26.2461 10.2658C26.4657 10.0463 26.7273 9.87314 27.0152 9.75683C27.3032 9.64053 27.6116 9.58341 27.9221 9.58889C28.2326 9.59437 28.5388 9.66233 28.8225 9.78872C29.1062 9.91511 29.3615 10.0973 29.5732 10.3245L36.1145 16.8643C36.548 17.298 36.7915 17.886 36.7915 18.4992C36.7915 19.1124 36.548 19.7005 36.1145 20.1342L29.5747 26.6755C29.36 26.8903 29.1051 27.0607 28.8245 27.177C28.544 27.2933 28.2432 27.3531 27.9395 27.3532C27.6358 27.3533 27.3351 27.2935 27.0545 27.1774C26.7739 27.0612 26.5189 26.8909 26.3041 26.6762C26.0893 26.4615 25.9188 26.2066 25.8026 25.9261C25.6863 25.6455 25.6264 25.3448 25.6263 25.0411C25.6262 24.7374 25.686 24.4366 25.8021 24.156C25.9183 23.8754 26.0886 23.6204 26.3033 23.4056L31.2089 18.5L26.3048 13.5929Z" fill="#1F2D3D"/>
</svg>
